<svg xmlns="http://www.w3.org/2000/svg" viewBox="0 0 275.75 483"><g id="Layer_2" data-name="Layer 2"><g id="Layer_1-2" data-name="Layer 1"><path d="M275.75,61.45V82H196V61.45ZM242.3,106.32H196V126.9H242.3ZM196,171.77h79.77V151.18H196Zm46.32,24.29H196v20.58H242.3ZM196,261.5h79.77V240.92H196Zm12.44,117.29a104.21,104.21,0,1,1-157-89.8V52.75a52.75,52.75,0,0,1,105.5,0V289a103.68,103.68,0,0,1,51.46,89.8Zm-20.59,0A83.24,83.24,0,0,0,142,304.28l-5.63-2.86V52.76a32.17,32.17,0,1,0-64.33,0V301.42l-5.62,2.86a83.59,83.59,0,1,0,121.41,74.51Zm-17.15,0A66.47,66.47,0,1,1,87.1,314.64l3.82-1V84.83h26.59V313.61l3.81,1a66.46,66.46,0,0,1,49.36,64.15ZM107.5,334.48a13.29,13.29,0,0,0-15.88-10,54.65,54.65,0,0,0-42.79,53.59,13.28,13.28,0,1,0,26.55,0,28.56,28.56,0,0,1,22.1-27.68,13.34,13.34,0,0,0,10-15.89Z" style="fill:#fff"/></g></g></svg>