<?xml version="1.0" encoding="utf-8"?>
<!-- Generator: Adobe Illustrator 24.2.3, SVG Export Plug-In . SVG Version: 6.00 Build 0)  -->
<svg version="1.1" id="Layer_1" xmlns="http://www.w3.org/2000/svg" xmlns:xlink="http://www.w3.org/1999/xlink" x="0px" y="0px"
	 viewBox="0 0 512 512" style="enable-background:new 0 0 512 512;" xml:space="preserve">
<style type="text/css">
	.st0{fill:#656565;}
</style>
<path class="st0" d="M394.2,75.5V96h-79.8V75.5H394.2z M360.7,120.3h-46.3v20.6h46.3V120.3z M314.4,185.8h79.8v-20.6h-79.8V185.8z
	 M360.7,210.1h-46.3v20.6h46.3V210.1z M314.4,275.5h79.8v-20.6h-79.8V275.5z M326.8,392.8c0,57.5-46.7,104.2-104.2,104.2
	s-104.2-46.7-104.2-104.2c0-37.2,19.6-71.1,51.5-89.8V66.7c0-29.1,23.7-52.7,52.7-52.7s52.7,23.7,52.7,52.7V303
	C307.3,321.7,326.8,355.5,326.8,392.8L326.8,392.8z M306.2,392.8c0-31.6-17.6-60.2-45.8-74.5l-5.6-2.9V66.8
	c0-17.7-14.4-32.2-32.2-32.2S190.5,49,190.5,66.8v248.7l-5.6,2.9c-28.3,14.4-45.8,42.9-45.8,74.5c0,46.1,37.5,83.6,83.6,83.6
	S306.2,438.9,306.2,392.8L306.2,392.8z M289.1,392.8c0,36.7-29.8,66.5-66.5,66.5c-36.7,0-66.5-29.8-66.5-66.5
	c0-30,20.3-56.4,49.4-64.2l3.8-1V98.8h26.6v228.8l3.8,1C268.8,336.4,289.1,362.8,289.1,392.8L289.1,392.8z M225.9,348.5
	c-1.6-7-8.7-11.7-15.9-10c-25.2,5.7-42.8,27.7-42.8,53.6c0,7.3,6,13.3,13.3,13.3s13.3-6,13.3-13.3c0-13.1,9.3-24.8,22.1-27.7
	C223,362.7,227.5,355.6,225.9,348.5L225.9,348.5z"/>
</svg>
